<?xml version="1.0" encoding="UTF-8" standalone="no"?><!DOCTYPE svg PUBLIC "-//W3C//DTD SVG 1.1//EN" "http://www.w3.org/Graphics/SVG/1.1/DTD/svg11.dtd"><svg width="100%" height="100%" viewBox="0 0 4167 4167" version="1.1" xmlns="http://www.w3.org/2000/svg" xmlns:xlink="http://www.w3.org/1999/xlink" xml:space="preserve" xmlns:serif="http://www.serif.com/" style="fill-rule:evenodd;clip-rule:evenodd;stroke-linejoin:round;stroke-miterlimit:2;"><g><path d="M1305.07,1788.71c0,-0 -99.848,-93.933 -103.713,-208.326c-3.865,-114.394 -8.637,-246.29 -8.637,-246.29c-0,-0 94.74,-24.526 154.409,170.597c-0,-0 -19.49,-296.315 37.085,-300.28c56.576,-3.965 76.465,61.076 76.465,61.076c35.068,-26.966 82.661,-30.948 121.721,-10.182l19.357,176.565c-0,-0 85.847,-232.671 113.967,-227.934c28.119,4.736 121.798,101.895 121.798,101.895c0,-0 60.74,-63.027 107.607,-55.133c46.866,7.895 30.201,244.146 30.201,244.146c3.072,-70.8 41.861,-105.455 114.264,-106.074c-0,-0 85.268,300.652 -93.359,399.728c-61.222,33.958 -140.856,205.543 -243.196,207.726c-196.253,4.187 -447.969,-207.514 -447.969,-207.514l0,-0Z" style="fill:#1686d7;fill-rule:nonzero;"/><path d="M1534.46,1703c-125.146,-103.977 -172.919,-129.375 -172.919,-129.375c-0,-0 -139.792,51.639 -75.05,205.204l-54.325,-32.285c0,0 16.067,128.252 267.124,233.923c271.658,114.344 413.626,-34.444 413.293,-73.042c-0,-0 271.452,-100.791 228.815,-385.582l-86.945,35.478l-178.927,272.532l-48.195,-94.673c-31.746,-62.361 -121.822,-59.399 -149.403,4.912c-0,-0 -18.322,66.885 -143.468,-37.092l0,-0l-0,-0Z" style="fill:#3f3d56;fill-rule:nonzero;"/><path d="M1703.32,2932.16c-9.76,-0 -18.787,-6.299 -21.78,-16.138c-121.58,-397.549 -98.252,-948.263 -98.007,-953.784c0.578,-12.576 11.285,-22.437 23.806,-21.747c12.565,0.579 22.303,11.219 21.735,23.795c-0.244,5.454 -23.183,548.467 96.049,938.425c3.683,12.02 -3.083,24.775 -15.126,28.447c-2.226,0.69 -4.463,1.002 -6.678,1.002l0.001,-0Z" style="fill:#3f3d56;fill-rule:nonzero;"/></g><circle cx="647.852" cy="1978.14" r="271.53" style="fill:#ff6584;"/><path d="M3014.91,2790.5c-0,534.582 -317.801,721.238 -709.828,721.238c-392.027,0 -709.828,-186.656 -709.828,-721.238c0,-534.582 709.828,-1214.65 709.828,-1214.65c0,-0 709.828,680.073 709.828,1214.65Z" style="fill:#3f3d56;fill-rule:nonzero;"/><path d="M2279.22,3429.97l7.271,-447.395l302.543,-553.494l-301.403,483.309l3.265,-201.165l208.516,-400.447l-207.652,347.208l-0,0.005l5.88,-361.815l223.281,-318.802l-222.358,261.912l3.675,-663.434l-23.082,878.265l1.899,-36.23l-227.016,-347.478l223.375,417.026l-21.153,404.078l-0.632,-10.725l-261.7,-365.667l260.911,403.559l-2.644,50.535l-0.479,0.76l0.217,4.149l-53.663,1025.18l71.699,0l8.603,-529.528l260.27,-402.568l-259.623,362.762Z" style="fill:#f2f2f2;fill-rule:nonzero;"/><path d="M1680.13,2790.5c0,534.582 -317.8,721.238 -709.827,721.238c-392.027,0 -709.828,-186.656 -709.828,-721.238c0,-534.582 709.828,-1214.65 709.828,-1214.65c-0,-0 709.827,680.073 709.827,1214.65Z" style="fill:#3f3d56;fill-rule:nonzero;"/><path d="M944.443,3429.97l7.272,-447.395l302.547,-553.494l-301.408,483.309l3.266,-201.165l208.516,-400.447l-207.648,347.208l0,0.005l5.876,-361.815l223.281,-318.802l-222.359,261.912l3.676,-663.434l-23.078,878.265l1.895,-36.23l-227.011,-347.478l223.37,417.026l-21.154,404.078l-0.626,-10.725l-261.706,-365.667l260.912,403.559l-2.645,50.535l-0.473,0.76l0.217,4.149l-53.668,1025.18l71.699,0l8.603,-529.528l260.275,-402.568l-259.629,362.762Z" style="fill:#f2f2f2;fill-rule:nonzero;"/><path d="M1638.27,3994.78c-0.001,0 -0.003,0 -0.005,0c-805.008,0 -1467.43,-662.422 -1467.43,-1467.43c-0,-805.008 662.422,-1467.43 1467.43,-1467.43c805.009,-0 1467.43,662.422 1467.43,1467.43c-0,389.038 -154.709,762.54 -429.801,1037.63c-274.483,275.987 -648.382,430.862 -1037.62,429.8Zm0,-2923.65c-802.963,-0 -1456.22,653.258 -1456.22,1456.22c0,802.966 653.261,1456.23 1456.22,1456.23c802.964,0 1456.22,-653.26 1456.22,-1456.23c0,-802.966 -653.26,-1456.22 -1456.22,-1456.22Z" style="fill:#2f2e41;fill-rule:nonzero;"/><path d="M2838.17,3364.56l0,624.892l-2399.6,-0l-0,-624.892l1199.8,-624.897l2.501,1.298l1197.3,623.599Z" style="fill:#f2f2f2;fill-rule:nonzero;"/><path d="M2838.17,3364.56l0,624.892l-1197.3,-0l0,-1248.49l1197.3,623.599Z" style="fill-opacity:0.1;fill-rule:nonzero;"/><path d="M1535.89,3122.1l-89.981,33.975l-0,-133.956l89.981,-39.441l0,139.422Z" style="fill:#3f3d56;fill-rule:nonzero;"/><path d="M541.057,3497.03l-29.994,11.341l-0,-81.328l29.994,-13.261l-0,83.248Z" style="fill:#3f3d56;fill-rule:nonzero;"/><path d="M646.04,3462.04l-34.996,13.117l-0,-88.102l34.996,-15.362l-0,90.347Z" style="fill:#3f3d56;fill-rule:nonzero;"/><path d="M761.018,3417.05l-39.994,15.041l0,-95.028l39.994,-17.601l-0,97.588Z" style="fill:#3f3d56;fill-rule:nonzero;"/><path d="M900.997,3362.06l-49.993,18.869l-0,-98.856l49.993,-21.933l-0,101.92Z" style="fill:#3f3d56;fill-rule:nonzero;"/><path d="M1070.96,3297.07l-59.988,22.673l0,-107.657l59.988,-26.314l-0,111.298Z" style="fill:#3f3d56;fill-rule:nonzero;"/><path d="M1275.93,3222.08l-69.987,26.368l-0,-121.352l69.987,-30.679l-0,125.663Z" style="fill:#3f3d56;fill-rule:nonzero;"/><path d="M541.057,3662l-29.994,7.542l-0,-82.527l29.994,-9.486l-0,84.471Z" style="fill:#3f3d56;fill-rule:nonzero;"/><path d="M646.04,3637.01l-34.996,8.761l-0,-88.748l34.996,-11.03l-0,91.017Z" style="fill:#3f3d56;fill-rule:nonzero;"/><path d="M761.018,3607.01l-39.994,10.049l0,-95.033l39.994,-12.614l-0,97.598Z" style="fill:#3f3d56;fill-rule:nonzero;"/><path d="M900.997,3572.02l-49.993,12.555l-0,-102.541l49.993,-15.732l-0,105.718Z" style="fill:#3f3d56;fill-rule:nonzero;"/><path d="M1070.96,3527.03l-59.988,15.14l0,-110.124l59.988,-18.869l-0,113.853Z" style="fill:#3f3d56;fill-rule:nonzero;"/><path d="M1275.93,3477.04l-74.99,18.859l0,-123.843l74.99,-23.595l-0,128.579Z" style="fill:#3f3d56;fill-rule:nonzero;"/><path d="M1535.89,3412.05l-89.981,22.618l-0,-137.601l89.981,-28.228l0,143.211Z" style="fill:#3f3d56;fill-rule:nonzero;"/><path d="M1535.89,3697l-89.981,11.454l-0,-136.432l89.981,-17.019l0,141.997Z" style="fill:#3f3d56;fill-rule:nonzero;"/><path d="M541.057,3821.98l-29.994,3.858l-0,-78.843l29.994,-5.717l-0,80.702Z" style="fill:#3f3d56;fill-rule:nonzero;"/><path d="M646.04,3811.98l-34.996,4.411l-0,-84.397l34.996,-6.566l-0,86.552Z" style="fill:#3f3d56;fill-rule:nonzero;"/><path d="M761.018,3796.98l-39.994,5.062l0,-95.043l39.994,-7.622l-0,97.603Z" style="fill:#3f3d56;fill-rule:nonzero;"/><path d="M900.997,3776.99l-49.993,6.389l-0,-101.372l49.993,-9.536l-0,104.519Z" style="fill:#3f3d56;fill-rule:nonzero;"/><path d="M1070.96,3756.99l-59.988,7.612l0,-112.59l59.988,-11.425l-0,116.403Z" style="fill:#3f3d56;fill-rule:nonzero;"/><path d="M1275.93,3731.99l-74.99,9.476l0,-124.459l74.99,-14.232l-0,129.215Z" style="fill:#3f3d56;fill-rule:nonzero;"/><path d="M2740.69,3497.03l29.998,11.341l0,-81.328l-29.998,-13.261l-0,83.248Z" style="fill:#3f3d56;fill-rule:nonzero;"/><path d="M2635.7,3462.04l34.996,13.117l-0,-88.102l-34.996,-15.362l-0,90.347Z" style="fill:#3f3d56;fill-rule:nonzero;"/><path d="M2520.72,3417.05l39.993,15.041l0,-95.028l-39.993,-17.601l-0,97.588Z" style="fill:#3f3d56;fill-rule:nonzero;"/><path d="M2380.75,3362.06l49.993,18.869l-0,-98.856l-49.993,-21.933l-0,101.92Z" style="fill:#3f3d56;fill-rule:nonzero;"/><path d="M2210.78,3297.07l59.987,22.673l0,-107.657l-59.987,-26.314l-0,111.298Z" style="fill:#3f3d56;fill-rule:nonzero;"/><path d="M2005.81,3222.08l69.992,26.368l-0,-121.352l-69.992,-30.679l-0,125.663Z" style="fill:#3f3d56;fill-rule:nonzero;"/><path d="M2740.69,3662l29.998,7.542l0,-82.527l-29.998,-9.486l-0,84.471Z" style="fill:#3f3d56;fill-rule:nonzero;"/><path d="M2635.7,3637.01l34.996,8.761l-0,-88.748l-34.996,-11.03l-0,91.017Z" style="fill:#3f3d56;fill-rule:nonzero;"/><path d="M2520.72,3607.01l39.993,10.049l0,-95.033l-39.993,-12.614l-0,97.598Z" style="fill:#3f3d56;fill-rule:nonzero;"/><path d="M2380.75,3572.02l49.993,12.555l-0,-102.541l-49.993,-15.732l-0,105.718Z" style="fill:#3f3d56;fill-rule:nonzero;"/><path d="M2210.78,3527.03l59.987,15.14l0,-110.124l-59.987,-18.869l-0,113.853Z" style="fill:#3f3d56;fill-rule:nonzero;"/><path d="M2005.81,3477.04l74.989,18.859l0,-123.843l-74.989,-23.595l-0,128.579Z" style="fill:#3f3d56;fill-rule:nonzero;"/><path d="M1745.85,3412.05l89.987,22.618l-0,-137.601l-89.987,-28.228l0,143.211Z" style="fill:#3f3d56;fill-rule:nonzero;"/><path d="M1745.85,3697l89.987,11.454l-0,-136.432l-89.987,-17.019l0,141.997Z" style="fill:#3f3d56;fill-rule:nonzero;"/><path d="M2740.69,3821.98l29.998,3.858l0,-78.843l-29.998,-5.717l-0,80.702Z" style="fill:#3f3d56;fill-rule:nonzero;"/><path d="M2635.7,3811.98l34.996,4.411l-0,-84.397l-34.996,-6.566l-0,86.552Z" style="fill:#3f3d56;fill-rule:nonzero;"/><path d="M2520.72,3796.98l39.993,5.062l0,-95.043l-39.993,-7.622l-0,97.603Z" style="fill:#3f3d56;fill-rule:nonzero;"/><path d="M2380.75,3776.99l49.993,6.389l-0,-101.372l-49.993,-9.536l-0,104.519Z" style="fill:#3f3d56;fill-rule:nonzero;"/><path d="M2210.78,3756.99l59.987,7.612l0,-112.59l-59.987,-11.425l-0,116.403Z" style="fill:#3f3d56;fill-rule:nonzero;"/><path d="M2005.81,3731.99l74.989,9.476l0,-124.459l-74.989,-14.232l-0,129.215Z" style="fill:#3f3d56;fill-rule:nonzero;"/><path d="M1830.84,3157.09l-89.981,-33.936l0,-141.034l89.981,39.455l0,135.515Z" style="fill:#3f3d56;fill-rule:nonzero;"/><rect x="2668.44" y="3878.18" width="7.335" height="117.357" style="fill:#2f2e41;"/><rect x="2756.99" y="3910.12" width="5.197" height="83.158" style="fill:#2f2e41;"/><rect x="2834.42" y="3920.28" width="4.568" height="73.087" style="fill:#2f2e41;"/><path d="M2460.73,3840.97l0,150.975l-97.479,-0.148l-97.485,-0.153l-0,-169.672l97.485,9.501l97.479,9.497Z" style="fill:#3f3d56;fill-rule:nonzero;"/><path d="M821.01,3991.95l194.965,-0.311l-0,-169.662l-194.965,18.978l0,150.995Z" style="fill:#3f3d56;fill-rule:nonzero;"/><rect x="-20.833" y="3986.95" width="4368.34" height="9.998" style="fill:#2f2e41;"/><path d="M2460.73,3840.97l0,150.975l-97.479,-0.148l-0,-160.324l97.479,9.497Z" style="fill-opacity:0.1;fill-rule:nonzero;"/><rect x="1618.38" y="3854.47" width="9.998" height="139.977" style="fill:#2f2e41;"/><path d="M1681.07,3804.64c0,49.05 -26.201,89.983 -57.697,91.389c-30.622,1.367 -54.828,-35.338 -54.828,-81.948c-0,-46.611 59.827,-174.572 59.827,-174.572c-0,0 52.698,116.081 52.698,165.131Z" style="fill:#1686d7;fill-rule:nonzero;"/><rect x="446.169" y="3899.33" width="5.964" height="83.492" style="fill:#2f2e41;"/><path d="M483.566,3869.61c-0,29.257 -15.629,53.672 -34.416,54.511c-18.264,0.815 -32.703,-21.078 -32.703,-48.88c0,-27.801 35.685,-104.127 35.685,-104.127c0,0 31.434,69.239 31.434,98.496Z" style="fill:#1686d7;fill-rule:nonzero;"/><path d="M2712.45,3882.81c0,27.825 -17.535,49.559 -40.341,48.489c-24.217,-1.136 -44.976,-27.258 -44.976,-58.279c0,-31.022 44.976,-108.529 44.976,-108.529c-0,0 40.341,90.494 40.341,118.319Z" style="fill:#1686d7;fill-rule:nonzero;"/><path d="M2788.18,3913.4c0,19.717 -12.425,35.117 -28.585,34.359c-17.16,-0.805 -31.87,-19.315 -31.87,-41.297c0,-21.981 31.87,-76.902 31.87,-76.902c-0,0 28.585,64.123 28.585,83.84Z" style="fill:#1686d7;fill-rule:nonzero;"/><path d="M2861.83,3923.16c-0,17.329 -10.921,30.865 -25.124,30.198c-15.082,-0.707 -28.01,-16.975 -28.01,-36.295c-0,-19.319 28.01,-67.589 28.01,-67.589c-0,0 25.124,56.358 25.124,73.686Z" style="fill:#1686d7;fill-rule:nonzero;"/><path d="M2897.33,1213.77c0,0 -48.659,145.978 -21.626,178.418c27.033,32.44 -162.198,-97.319 -162.198,-97.319l102.725,-118.945l81.099,37.846Z" style="fill:#a0616a;fill-rule:nonzero;"/><circle cx="2786.36" cy="970.785" r="242.746" style="fill:#2f2e41;"/><path d="M3729.95,2857.38l-124.351,97.322l-70.288,-113.542l124.351,-86.504l70.288,102.724Z" style="fill:#a0616a;fill-rule:nonzero;"/><path d="M3554.23,3589.97l32.439,156.791l91.913,124.352c-0,0 248.703,75.693 81.099,113.539c-167.605,37.846 -205.451,-27.033 -205.451,-27.033l-118.946,-102.726l0,140.572l-75.692,-0l-16.22,-200.044c0,-0 -10.813,-59.473 37.846,-124.352l10.814,-97.319l162.198,16.22Z" style="fill:#2f2e41;fill-rule:nonzero;"/><path d="M2927.07,1649l43.252,248.704c0,-0 459.562,-48.66 492.001,43.252c32.44,91.913 43.253,118.946 43.253,118.946l-91.912,32.439l-43.253,-81.099c-26.614,-9.424 -55.971,-7.467 -81.099,5.407c-43.253,21.626 -421.715,75.692 -448.748,5.407c-27.033,-70.286 -102.726,-329.803 -102.726,-329.803l113.539,-91.912l75.693,48.659Z" style="fill:#a0616a;fill-rule:nonzero;"/><path d="M2927.07,1649l43.252,248.704c0,-0 459.562,-48.66 492.001,43.252c32.44,91.913 43.253,118.946 43.253,118.946l-91.912,32.439l-43.253,-81.099c-26.614,-9.424 -55.971,-7.467 -81.099,5.407c-43.253,21.626 -421.715,75.692 -448.748,5.407c-27.033,-70.286 -102.726,-329.803 -102.726,-329.803l113.539,-91.912l75.693,48.659Z" style="fill-opacity:0.1;fill-rule:nonzero;"/><path d="M3181.18,2368.08l37.846,129.759l97.319,497.407c0,0 10.813,367.649 27.033,410.902c16.22,43.253 16.22,48.66 0,64.879c-16.22,16.22 -48.659,70.286 0,102.726c48.66,32.44 221.671,70.286 227.078,32.439c5.406,-37.846 5.406,-97.318 -0,-124.351c-5.407,-27.033 16.219,-448.749 16.219,-448.749l-64.879,-643.385l-221.671,-102.726l-118.945,81.099Z" style="fill:#2f2e41;fill-rule:nonzero;"/><path d="M3181.18,2368.08l37.846,129.759l97.319,497.407c0,0 10.813,367.649 27.033,410.902c16.22,43.253 16.22,48.66 0,64.879c-16.22,16.22 -48.659,70.286 0,102.726c48.66,32.44 221.671,70.286 227.078,32.439c5.406,-37.846 5.406,-97.318 -0,-124.351c-5.407,-27.033 16.219,-448.749 16.219,-448.749l-64.879,-643.385l-221.671,-102.726l-118.945,81.099Z" style="fill-opacity:0.1;fill-rule:nonzero;"/><path d="M3413.66,1859.86l118.945,227.078c0,-0 681.232,302.77 621.76,427.121c-59.473,124.352 -389.276,356.836 -389.276,356.836c0,0 -16.22,91.913 -64.879,64.88c-48.659,-27.033 -167.605,-167.605 -156.791,-183.825c10.813,-16.22 48.659,-54.066 64.879,-48.659c16.22,5.406 205.451,-140.572 205.451,-140.572l-324.397,-81.099c0,-0 -389.275,-10.813 -410.902,-194.638c-21.626,-183.824 0,-216.264 0,-216.264l-27.033,-59.473l221.671,-135.165l140.572,-16.22Z" style="fill:#2f2e41;fill-rule:nonzero;"/><path d="M3581.26,2757.36l-113.539,102.725c0,0 -97.319,-43.253 -156.791,-27.033c-59.473,16.22 -162.199,27.033 -162.199,27.033l16.22,91.912l137.943,-25.449l-110.91,155.208c0,-0 0,243.297 70.286,243.297c70.286,0 48.659,-145.978 48.659,-145.978l216.265,-167.605c-0,0 108.132,-43.253 118.945,-43.253c10.813,0 -64.879,-210.857 -64.879,-210.857Z" style="fill:#2f2e41;fill-rule:nonzero;"/><circle cx="2875.7" cy="1073.2" r="183.825" style="fill:#a0616a;"/><path d="M2694.58,1216.47c-0,0 86.505,-21.626 113.538,0c27.033,21.627 32.44,70.286 70.286,75.693c37.846,5.406 70.286,5.407 75.693,10.813c5.406,5.407 129.758,156.792 129.758,156.792c0,-0 75.693,43.252 91.912,102.725c16.22,59.473 178.418,259.517 200.045,281.143c21.626,21.627 -140.572,129.759 -194.638,167.605c-54.066,37.846 -210.858,54.066 -259.517,-32.439c-48.659,-86.506 -313.583,-648.793 -227.077,-762.332Z" style="fill:#575a89;fill-rule:nonzero;"/><path d="M2900.03,1567.9l43.252,248.703c0,0 459.562,-48.659 492.001,43.253c32.44,91.913 43.253,118.946 43.253,118.946l-91.912,32.439l-43.253,-81.099c-26.614,-9.424 -55.971,-7.467 -81.099,5.407c-43.253,21.626 -421.715,75.692 -448.748,5.407c-27.033,-70.286 -102.726,-329.803 -102.726,-329.803l113.539,-91.912l75.693,48.659Z" style="fill:#a0616a;fill-rule:nonzero;"/><path d="M2796.71,1239.22c0,-0 130.353,274.616 119.539,350.308c-10.813,75.693 -48.659,21.627 -48.659,21.627c-0,-0 -48.66,-75.693 -70.286,-32.44c-21.626,43.253 -48.659,102.725 -70.286,97.319c-21.626,-5.407 -140.571,-405.496 -75.692,-443.342c64.879,-37.846 145.384,6.528 145.384,6.528Z" style="fill:#575a89;fill-rule:nonzero;"/><circle cx="2523.39" cy="651.169" r="242.746" style="fill:#2f2e41;"/><path d="M2314.01,852.179c41.376,29.905 91.15,46.01 142.203,46.01c107.079,-0 202.099,-70.847 232.661,-173.472c-15.194,120.831 -119.08,212.472 -240.863,212.472c-133.174,-0 -242.759,-109.586 -242.759,-242.76c-0,-23.453 3.398,-46.783 10.09,-69.261c-11.062,87.897 26.855,175.134 98.668,227.011Z" style="fill:#2f2e41;fill-rule:nonzero;"/><circle cx="2736.43" cy="1011.24" r="178.014" style="fill:#2f2e41;"/><ellipse cx="2871.32" cy="944.488" rx="157.785" ry="123.396" style="fill:#2f2e41;"/><ellipse cx="2878.41" cy="1092.12" rx="35.143" ry="62.176" style="fill:#a0616a;"/><path d="M3360.81,2008.88c0,-0 95.712,-54.913 113.48,-41.143c17.769,13.769 25.663,56.856 25.663,56.856l-110.62,43.419l-32.439,-59.473l3.916,0.341Z" style="fill:#2f2e41;fill-rule:nonzero;"/></svg>