<?xml version="1.0" encoding="UTF-8" standalone="no"?><!DOCTYPE svg PUBLIC "-//W3C//DTD SVG 1.1//EN" "http://www.w3.org/Graphics/SVG/1.1/DTD/svg11.dtd"><svg width="100%" height="100%" viewBox="0 0 4167 4167" version="1.1" xmlns="http://www.w3.org/2000/svg" xmlns:xlink="http://www.w3.org/1999/xlink" xml:space="preserve" xmlns:serif="http://www.serif.com/" style="fill-rule:evenodd;clip-rule:evenodd;stroke-linejoin:round;stroke-miterlimit:2;"><g><circle cx="2952.12" cy="1935.42" r="472.721" style="fill:#e6e6e6;"/><path d="M3079.84,2625.72l-116.282,72.057l-0,-487.074l130.339,-80.767c10.772,-6.675 18.651,-17.163 22.062,-29.368c-12.448,-2.378 -25.346,0.009 -36.119,6.684l-116.283,72.057l0,-188.873c0,-36.538 -4.481,-72.939 -13.343,-108.386c-8.862,35.447 -13.343,71.848 -13.343,108.386l0,308.276l-171.549,-106.304c-13.697,-8.487 -29.549,-12.861 -45.66,-12.597c6.934,14.545 17.907,26.794 31.603,35.281l185.607,115.014l0,1151.89l26.686,-0l-0,-752.827l130.339,-80.767c10.772,-6.675 18.651,-17.162 22.062,-29.368c-12.448,-2.378 -25.346,0.009 -36.119,6.684Z" style="fill:#ccc;fill-rule:nonzero;"/><circle cx="3652.28" cy="1975.56" r="472.721" style="fill:#e6e6e6;"/><path d="M3524.56,2665.86l116.283,72.057l0,-487.074l-130.339,-80.767c-10.772,-6.676 -18.651,-17.163 -22.062,-29.369c12.448,-2.377 25.346,0.01 36.119,6.685l116.283,72.057l-0,-188.873c-0,-36.538 4.481,-72.939 13.343,-108.386c8.862,35.447 13.343,71.848 13.343,108.386l-0,308.276l171.549,-106.304c13.696,-8.488 29.549,-12.861 45.66,-12.597c-6.935,14.545 -17.907,26.793 -31.604,35.281l-185.606,115.014l-0,1114.3l-26.686,0l0,-715.232l-130.339,-80.767c-10.772,-6.675 -18.651,-17.163 -22.062,-29.368c12.448,-2.378 25.346,0.009 36.118,6.684Z" style="fill:#ccc;fill-rule:nonzero;"/><circle cx="3308.89" cy="988.819" r="813.906" style="fill:#e6e6e6;"/><path d="M3088.99,2177.34l200.209,124.064l0,-838.618l-224.411,-139.061c-18.547,-11.493 -32.112,-29.55 -37.985,-50.564l-0,-0.001l0,0c21.432,-4.094 43.639,0.016 62.187,11.509l200.209,124.064l0,-325.191c0,-62.91 7.716,-125.583 22.973,-186.614c15.258,61.031 22.973,123.704 22.973,186.614l0,530.772l295.366,-183.028c23.582,-14.613 50.875,-22.143 78.614,-21.689c-11.939,25.042 -30.831,46.131 -54.413,60.745l-319.567,198.025l0,1817.96l-45.946,-0l0,-1130.88l-224.411,-139.06c-18.547,-11.493 -32.112,-29.55 -37.985,-50.565l-0,-0l-0,-0c21.432,-4.094 43.639,0.016 62.187,11.509Z" style="fill:#ccc;fill-rule:nonzero;"/><rect x="-41.667" y="3482" width="4300.35" height="4.329" style="fill:#3f3d56;"/><path d="M947.813,1643.33l190.686,110.093l-110.093,190.687l-190.686,-110.093l110.093,-190.687Z" style="fill:#3f3d56;"/><g><path d="M1371.01,2146.43c-0,-0 -18.296,-59.688 5.991,-105.808c24.287,-46.12 52.166,-99.368 52.166,-99.368c-0,-0 43.009,11.679 22.575,102.325c0,0 59.163,-121.604 82.435,-110.404c23.273,11.199 16.462,41.414 16.462,41.414c19.957,-2.752 39.68,6.414 50.444,23.443l-32.19,74.207c-0,0 86.465,-72.657 96.519,-64.438c10.054,8.22 25.181,67.791 25.181,67.791c0,0 38.249,-11.222 55.005,2.478c16.756,13.699 -43.152,103.386 -43.152,103.386c17.193,-27.312 40.357,-32.265 69.135,-16.171c-0,0 -34.124,138.165 -127.138,137.042c-31.879,-0.385 -102.102,49.513 -143.074,27.281c-78.572,-42.634 -130.36,-183.178 -130.36,-183.178l0.001,-0l-0,-0Z" style="fill:#1686d7;fill-rule:nonzero;"/><path d="M1481.09,2164.3c-26.036,-69.37 -39.2,-90.197 -39.2,-90.197c-0,-0 -66.948,-11.123 -75.996,64.23l-14.202,-25.03c0,0 -22.588,54.355 52.868,152.811c81.648,106.535 171.381,79.722 179.96,64.38c0,-0 130.118,21.393 177.524,-100.876l-42.397,-5.589l-132.278,67.418l2.302,-48.324c1.516,-31.83 -34.781,-50.987 -60.204,-31.774c0,0 -22.342,22.322 -48.377,-47.048l-0.001,-0l0.001,-0.001Z" style="fill:#3f3d56;fill-rule:nonzero;"/><path d="M1270.48,2688.6c-3.861,-2.202 -6.01,-6.731 -4.974,-11.298c41.628,-184.687 175.14,-397.254 176.483,-399.382c3.067,-4.844 9.527,-6.328 14.324,-3.23c4.84,3.065 6.29,9.471 3.227,14.318c-1.327,2.101 -132.946,211.711 -173.79,392.864c-1.256,5.586 -6.811,9.104 -12.403,7.839c-1.036,-0.229 -1.991,-0.611 -2.867,-1.111l-0.001,0l0.001,0Z" style="fill:#3f3d56;fill-rule:nonzero;"/></g><g><path d="M1209.92,2120.45c-0,-0 -45.471,-42.777 -47.231,-94.871c-1.76,-52.094 -3.933,-112.16 -3.933,-112.16c-0,0 43.144,-11.169 70.317,77.69c-0,-0 -8.876,-134.941 16.889,-136.747c25.764,-1.805 34.821,27.814 34.821,27.814c15.97,-12.28 37.644,-14.093 55.432,-4.637l8.815,80.407c-0,0 39.095,-105.957 51.9,-103.8c12.805,2.157 55.467,46.402 55.467,46.402c-0,0 27.661,-28.702 49.003,-25.107c21.343,3.595 13.754,111.184 13.754,111.184c1.399,-32.243 19.063,-48.024 52.035,-48.306c0,-0 38.831,136.916 -42.515,182.035c-27.881,15.464 -64.146,93.603 -110.751,94.597c-89.373,1.907 -204.003,-94.501 -204.003,-94.501l-0,-0Z" style="fill:#1686d7;fill-rule:nonzero;"/><path d="M1314.38,2081.42c-56.99,-47.351 -78.746,-58.917 -78.746,-58.917c-0,-0 -63.661,23.516 -34.178,93.449l-24.739,-14.702c0,-0 7.317,58.405 121.647,106.528c123.712,52.071 188.364,-15.686 188.212,-33.264c0,0 123.619,-45.9 104.202,-175.592l-39.594,16.156l-81.483,124.11l-21.948,-43.114c-14.457,-28.398 -55.477,-27.05 -68.038,2.237c0,0 -8.344,30.46 -65.334,-16.891l-0,-0l-0.001,-0Z" style="fill:#3f3d56;fill-rule:nonzero;"/><path d="M1391.28,2641.18c-4.445,-0 -8.556,-2.869 -9.919,-7.349c-55.367,-181.043 -44.744,-431.836 -44.632,-434.35c0.263,-5.727 5.139,-10.218 10.841,-9.904c5.722,0.264 10.157,5.109 9.898,10.836c-0.111,2.484 -10.557,249.77 43.74,427.356c1.678,5.474 -1.403,11.282 -6.888,12.955c-1.013,0.314 -2.032,0.456 -3.041,0.456l0.001,-0Z" style="fill:#3f3d56;fill-rule:nonzero;"/></g><path d="M2750.95,1083.75c-0.165,0.16 -0.317,0.329 -0.48,0.49c-25.439,-25.244 -66.409,-25.466 -92.12,-0.499c-25.803,25.065 -26.675,66.212 -1.957,92.347l-0.016,0.016l0.615,0.634l91.024,93.721l94.355,-91.64l-0.262,-0.27c0.158,-0.151 0.323,-0.291 0.48,-0.444c26.056,-25.306 26.664,-66.942 1.358,-92.998c-25.306,-26.055 -66.942,-26.663 -92.997,-1.357l0,0Z" style="fill:#1686d7;fill-rule:nonzero;"/><path d="M2567,1329.3c-0.105,0.103 -0.202,0.211 -0.306,0.314c-16.28,-16.155 -42.499,-16.297 -58.952,-0.32c-16.513,16.04 -17.071,42.372 -1.253,59.097l-0.01,0.01l0.394,0.406l58.25,59.976l60.382,-58.644l-0.168,-0.173c0.101,-0.097 0.207,-0.186 0.307,-0.284c16.674,-16.194 17.063,-42.839 0.869,-59.513c-16.194,-16.674 -42.839,-17.063 -59.513,-0.869l0,0Z" style="fill:#1686d7;fill-rule:nonzero;"/><path d="M945.392,1983.85l114.959,-199.113l-199.113,-114.956l-114.959,199.115l199.113,114.954Zm101.67,-195.551l-105.232,182.262l-182.262,-105.227l105.232,-182.264l182.262,105.229Z" style="fill:#2f2e41;fill-rule:nonzero;"/><circle cx="1123.78" cy="2426.5" r="92.404" style="fill:#d0cde1;"/><path d="M1055.69,2523.76c53.36,0 97.268,-43.908 97.268,-97.267c-0,-53.359 -43.908,-97.267 -97.268,-97.267c-53.359,-0 -97.267,43.908 -97.267,97.267c0,53.359 43.908,97.267 97.267,97.267Zm0,-184.808c48.024,0 87.541,39.517 87.541,87.541c-0,48.023 -39.517,87.54 -87.541,87.54c-48.023,0 -87.54,-39.517 -87.54,-87.54c-0,-48.024 39.517,-87.541 87.54,-87.541Z" style="fill:#2f2e41;fill-rule:nonzero;"/><path d="M540.847,3504.12l894.858,0c22.668,-0.026 41.313,-18.671 41.339,-41.338l0,-831.635c-0.026,-22.668 -18.671,-41.313 -41.339,-41.339l-894.858,0c-22.668,0.026 -41.313,18.671 -41.339,41.339l0,831.635c0.026,22.667 18.671,41.312 41.339,41.338Z" style="fill:#1686d7;fill-rule:nonzero;"/><path d="M925.06,3533.32l126.447,0c22.668,-0.026 41.312,-18.67 41.339,-41.338l-0,-885.541c-0.027,-22.667 -18.671,-41.312 -41.339,-41.338l-126.447,-0c-22.668,0.026 -41.313,18.671 -41.339,41.338l-0,885.541c0.026,22.668 18.671,41.312 41.339,41.338Z" style="fill:#3f3d56;fill-rule:nonzero;"/><path d="M303.094,2507.49c5.228,85.791 121.116,148.535 121.116,148.535c-0,0 107.412,-76.351 102.184,-162.143c-5.228,-85.791 -121.116,-148.535 -121.116,-148.535c-0,-0 -107.412,76.351 -102.184,162.143Z" style="fill:#3f3d56;fill-rule:nonzero;"/><path d="M297.845,2775.16c85.808,-4.961 148.913,-120.652 148.913,-120.652c0,-0 -76.016,-107.65 -161.823,-102.69c-85.808,4.96 -148.914,120.652 -148.914,120.652c0,-0 76.016,107.65 161.824,102.69Z" style="fill:#3f3d56;fill-rule:nonzero;"/><path d="M501.941,2691.55l0,317.481l315.778,-416.79l-240.542,-0l-75.236,99.309Z" style="fill-opacity:0.1;fill-rule:nonzero;"/><path d="M233.861,3235.01c12.947,0.027 25.18,-6.037 32.997,-16.357l657.888,-868.309c5.443,-7.183 8.39,-15.953 8.39,-24.965c-0,-12.931 -6.067,-25.14 -16.374,-32.949l-96.911,-73.426c-7.182,-5.442 -15.951,-8.39 -24.962,-8.39c-12.932,0 -25.142,6.07 -32.949,16.379l-657.889,868.305c-5.442,7.183 -8.389,15.953 -8.389,24.965c-0,12.931 6.067,25.14 16.373,32.949l96.911,73.425c7.164,5.441 15.919,8.384 24.915,8.373Z" style="fill:#1686d7;fill-rule:nonzero;"/><path d="M497.199,2560.3l166.684,126.291l-126.291,166.684l-166.685,-126.291l126.292,-166.684Z" style="fill:#3f3d56;"/><path d="M2224.65,2742.76c-10.895,-10.436 -17.063,-24.886 -17.063,-39.973c0,-17.667 8.458,-34.306 22.73,-44.719l89.309,-719.925l115.39,34.309l-124.574,700.61c5.633,8.902 8.624,19.224 8.624,29.758c0,30.532 -25.124,55.656 -55.656,55.656c-14.467,0 -28.378,-5.64 -38.76,-15.716Z" style="fill:#ffb8b8;fill-rule:nonzero;"/><path d="M2117.69,3430.88l-67.489,-0l-32.122,-260.312l99.611,0l0,260.312Z" style="fill:#ffb8b8;fill-rule:nonzero;"/><path d="M1920.04,3493.55l212.107,0l0,-81.95l-137.654,-0c-40.844,-0 -74.453,33.609 -74.453,74.453l-0,7.497Z" style="fill:#2f2e41;fill-rule:nonzero;"/><path d="M2584.39,3325.76l-63.258,23.529l-120.854,-232.785l93.357,-34.729l90.755,243.985Z" style="fill:#ffb8b8;fill-rule:nonzero;"/><path d="M2420.99,3453.4l198.8,-73.947l-28.571,-76.809l-129.017,47.99c-38.282,14.24 -58.066,57.458 -43.826,95.74l2.614,7.026l-0,0Z" style="fill:#2f2e41;fill-rule:nonzero;"/><circle cx="2238.75" cy="1623.65" r="127.609" style="fill:#ffb8b8;"/><path d="M2438.35,1951.16c3.996,-117.539 -119.537,-199.079 -223.472,-144.046c-13.243,7.012 -149.975,123.178 -155.128,195.318c-5.153,72.141 -15.458,190.657 -15.458,190.657l-144.281,1076.96l309.173,-15.459l-37.338,-314.164l200.963,319.48l243.454,-77.456l-298.868,-860.534c-0,-0 114.899,-192.627 120.955,-370.752Z" style="fill:#2f2e41;fill-rule:nonzero;"/><path d="M2435.92,1992.08l-19.853,258.092c-0.428,5.559 -5.122,9.906 -10.698,9.906l-87.354,0c-5.886,0 -10.729,-4.843 -10.729,-10.729c0,-1.412 0.279,-2.811 0.821,-4.116l107.207,-258.091c1.66,-3.996 5.582,-6.614 9.909,-6.614c5.885,0 10.728,4.843 10.728,10.729c0,0.275 -0.01,0.549 -0.031,0.823Z" style="fill:#2f2e41;fill-rule:nonzero;"/><path d="M1987.32,2698.05c-8.175,-9.913 -12.648,-22.369 -12.648,-35.218c0,-19.96 10.796,-38.433 28.187,-48.23l172.949,-704.525l110.581,47.577l-205.709,681.216c3.596,7.507 5.464,15.726 5.464,24.05c-0,30.532 -25.124,55.656 -55.656,55.656c-16.734,-0 -32.606,-7.547 -43.168,-20.527l-0,0.001Z" style="fill:#ffb8b8;fill-rule:nonzero;"/><path d="M2271.02,1847.84c0,0 36.07,72.141 0,200.963c-36.07,128.823 -61.835,237.034 -61.835,237.034c0,-0 -82.446,-51.529 -118.516,-36.071c-36.071,15.459 57.058,-343.406 57.058,-343.406c-0,-0 56.306,-120.355 123.293,-58.52Z" style="fill:#2f2e41;fill-rule:nonzero;"/><path d="M2208.81,1643.56c-1.723,-26.478 -35.128,-27.385 -61.661,-27.636c-26.533,-0.251 -58.255,0.696 -73.269,-21.182c-9.921,-14.459 -8.026,-34.531 0.171,-50.033c8.196,-15.502 21.679,-27.425 34.943,-38.895c34.245,-29.612 69.539,-58.989 110.653,-77.943c41.113,-18.954 89.293,-26.612 131.932,-11.397c52.379,18.69 123.186,114.901 129.3,170.177c6.114,55.277 -15.976,111.627 -53.214,152.933c-37.238,41.306 -122.469,24.64 -176.106,39.335c32.608,-46.152 11.115,-130.01 -41.123,-151.562l-1.626,16.203Z" style="fill:#2f2e41;fill-rule:nonzero;"/></g></svg>