<?xml version="1.0" encoding="UTF-8" standalone="no"?><!DOCTYPE svg PUBLIC "-//W3C//DTD SVG 1.1//EN" "http://www.w3.org/Graphics/SVG/1.1/DTD/svg11.dtd"><svg width="100%" height="100%" viewBox="0 0 4167 4167" version="1.1" xmlns="http://www.w3.org/2000/svg" xmlns:xlink="http://www.w3.org/1999/xlink" xml:space="preserve" xmlns:serif="http://www.serif.com/" style="fill-rule:evenodd;clip-rule:evenodd;stroke-linejoin:round;stroke-miterlimit:2;"><circle cx="1427.01" cy="699.774" r="325.741" style="fill:#ff6584;"/><path d="M3329.14,794.748l-390.729,-0l0,-355.205l390.729,355.205Z" style="fill:#3f3d56;fill-rule:nonzero;"/><rect x="1409.18" y="783.119" width="1965.61" height="2715.61" style="fill:#e6e6e6;"/><rect x="1605.28" y="973.522" width="231.249" height="487.274" style="fill:#fff;"/><rect x="1962.97" y="973.522" width="231.249" height="487.274" style="fill:#fff;"/><rect x="1574.8" y="1664.17" width="231.249" height="487.274" style="fill:#fff;"/><rect x="1962.97" y="1664.17" width="231.249" height="487.274" style="fill:#fff;"/><rect x="1574.8" y="2303.2" width="231.249" height="487.274" style="fill:#fff;"/><rect x="1954.26" y="2294.49" width="231.249" height="487.274" style="fill:#fff;"/><rect x="2290.37" y="3012.55" width="231.249" height="487.274" style="fill:#ccc;"/><rect x="2639.75" y="2294.49" width="231.249" height="487.274" style="fill:#fff;"/><rect x="3027.92" y="2294.49" width="231.249" height="487.274" style="fill:#fff;"/><rect x="2648.46" y="1659.01" width="231.249" height="487.274" style="fill:#fff;"/><rect x="3036.62" y="1659.01" width="231.249" height="487.274" style="fill:#fff;"/><rect x="2648.46" y="973.522" width="231.249" height="487.274" style="fill:#fff;"/><rect x="3036.62" y="973.522" width="231.249" height="487.274" style="fill:#fff;"/><path d="M1836.97,3117.91l0,-105.367l-126.44,-0l-0,105.367l126.44,-0Z" style="fill:#fff;fill-rule:nonzero;"/><path d="M1836.97,3202.2l-126.44,0l-0,105.367l126.44,0l0,-105.367Z" style="fill:#fff;fill-rule:nonzero;"/><rect x="1921.26" y="3012.55" width="126.439" height="105.366" style="fill:#fff;"/><rect x="1921.26" y="3202.2" width="126.439" height="105.366" style="fill:#fff;"/><path d="M2868.21,3117.91l-0,-105.367l-126.441,-0l0,105.367l126.441,-0Z" style="fill:#fff;fill-rule:nonzero;"/><path d="M2868.21,3202.2l-126.441,0l0,105.367l126.441,0l-0,-105.367Z" style="fill:#fff;fill-rule:nonzero;"/><rect x="2952.5" y="3012.55" width="126.439" height="105.366" style="fill:#fff;"/><rect x="2952.5" y="3202.2" width="126.439" height="105.366" style="fill:#fff;"/><rect x="1409.18" y="2756.99" width="1965.61" height="74.33" style="fill:#3f3d56;"/><rect x="1409.18" y="2624.85" width="1965.61" height="41.294" style="fill:#3f3d56;"/><path d="M2004.25,3463.33c0.005,-2.299 -0.027,-4.586 -0.093,-6.863c-1.766,-60.881 -62.16,-77.393 -94.537,-48.572c-21.028,-18.261 -52.622,-18.261 -73.651,-0c-32.515,-28.367 -91.706,-13.03 -93.66,47.16c-0.074,2.275 -0.113,4.562 -0.117,6.861c0.095,12.658 0.871,25.302 2.323,37.877l257.444,-0c1.399,-12.106 2.164,-24.277 2.291,-36.463Z" style="fill:#ff8686;fill-rule:nonzero;"/><path d="M3027.44,3463.33c0.004,-2.299 -0.027,-4.586 -0.093,-6.863c-1.766,-60.881 -62.16,-77.393 -94.537,-48.572c-21.028,-18.261 -52.623,-18.261 -73.651,-0c-32.516,-28.367 -91.706,-13.03 -93.66,47.16c-0.074,2.275 -0.113,4.562 -0.118,6.861c0.096,12.658 0.871,25.302 2.324,37.877l257.443,-0c1.4,-12.106 2.164,-24.277 2.292,-36.463Z" style="fill:#ff8686;fill-rule:nonzero;"/><path d="M3891.35,3503.91l-39.814,-0l13.27,-777.745l13.274,0l13.27,777.745Z" style="fill:#e6e6e6;fill-rule:nonzero;"/><path d="M3924.53,2236.52l64.27,-99.326c-19.06,-52.65 -41.074,-104.182 -65.937,-154.352l-41.559,33.567l32.906,-50.855c-31.36,-61.732 -56.036,-100.626 -56.036,-100.626c0,0 -128.895,203.118 -171.958,418.174l82.473,127.459l-91.301,-73.744c-3.252,25.052 -4.925,50.283 -5.009,75.545c-0,254.698 83.183,461.171 185.795,461.171c102.613,0 185.796,-206.473 185.796,-461.171c0,-78.959 -17.863,-161.567 -42.504,-237.983l-76.936,62.141Z" style="fill:#e6e6e6;fill-rule:nonzero;"/><rect x="2471.41" y="3751.79" width="753.594" height="29.786" style="fill:#e6e6e6;"/><rect x="3841.55" y="3751.79" width="757.67" height="29.786" style="fill:#e6e6e6;"/><rect x="1101.27" y="3751.79" width="754.571" height="29.786" style="fill:#e6e6e6;"/><rect x="-57.456" y="3499.14" width="4407.75" height="8.304" style="fill:#3f3d56;"/><path d="M2225.7,195.063l-0.574,0.313c-12.586,6.884 -27.841,6.937 -40.475,0.142c-0.359,-0.194 -0.716,-0.385 -1.07,-0.573c-12.632,-6.743 -27.845,-6.69 -40.43,0.139l-0.536,0.292c-12.587,6.884 -27.841,6.937 -40.476,0.142c-0.372,-0.201 -0.742,-0.399 -1.11,-0.595c-12.482,-6.711 -27.53,-6.737 -40.036,-0.071c-18.826,10.139 -44.277,27.474 -44.165,47.051c0.004,0.774 0.048,1.547 0.131,2.317c2.19,20.331 68.501,25.511 104.929,15.93c27.154,6.195 55.358,6.195 82.512,-0c36.272,9.734 103.933,4.157 105.91,-16.407c0.075,-0.77 0.11,-1.544 0.106,-2.318c-0.112,-19.588 -25.789,-36.741 -44.734,-46.737c-12.54,-6.56 -27.567,-6.419 -39.982,0.375Z" style="fill:#e6e6e6;fill-rule:nonzero;"/><path d="M3818.5,543.418l-0.574,0.313c-12.587,6.884 -27.841,6.937 -40.476,0.142c-0.358,-0.194 -0.715,-0.385 -1.07,-0.573c-12.631,-6.743 -27.845,-6.69 -40.43,0.139l-0.535,0.292c-12.587,6.884 -27.841,6.937 -40.476,0.142c-0.372,-0.201 -0.743,-0.399 -1.111,-0.595c-12.481,-6.711 -27.53,-6.737 -40.035,-0.071c-18.826,10.139 -44.278,27.474 -44.165,47.051c0.004,0.774 0.048,1.547 0.131,2.317c2.189,20.331 68.501,25.511 104.929,15.93c27.154,6.195 55.358,6.195 82.511,-0c36.273,9.735 103.933,4.157 105.911,-16.407c0.074,-0.77 0.11,-1.544 0.105,-2.318c-0.112,-19.588 -25.788,-36.741 -44.733,-46.737c-12.54,-6.56 -27.567,-6.419 -39.982,0.375Z" style="fill:#e6e6e6;fill-rule:nonzero;"/><path d="M853.428,903.784l-0.574,0.313c-12.587,6.883 -27.841,6.937 -40.476,0.142c-0.358,-0.194 -0.715,-0.385 -1.07,-0.574c-12.632,-6.742 -27.845,-6.69 -40.43,0.14l-0.535,0.292c-12.587,6.883 -27.841,6.937 -40.476,0.142c-0.372,-0.201 -0.743,-0.4 -1.111,-0.595c-12.481,-6.711 -27.53,-6.738 -40.035,-0.071c-18.826,10.139 -44.278,27.473 -44.166,47.05c0.005,0.774 0.049,1.548 0.132,2.318c2.189,20.33 68.501,25.511 104.929,15.929c27.154,6.196 55.358,6.196 82.511,0c36.273,9.735 103.933,4.158 105.911,-16.406c0.074,-0.771 0.109,-1.544 0.105,-2.318c-0.112,-19.588 -25.788,-36.741 -44.733,-46.737c-12.54,-6.561 -27.567,-6.42 -39.982,0.375Z" style="fill:#e6e6e6;fill-rule:nonzero;"/><rect x="159.617" y="3797.3" width="88.74" height="14.086" style="fill:#3f3d56;"/><path d="M889.96,3800.46l-18.309,4.236l-695.835,0.372l-6.258,-14.579c-10.911,-25.004 -14.658,-52.557 -10.818,-79.567c2.997,-20.134 10.507,-40.141 27.563,-48.83l30.879,-205.668l384.97,-0.689l148.944,120.132c-0,0 70.259,-1.263 108.428,46.256c13.768,17.667 21.899,39.078 23.331,61.43l1.506,24.719l5.599,92.188Z" style="fill:#ff8686;fill-rule:nonzero;"/><circle cx="737.128" cy="3797.02" r="85.923" style="fill:#3f3d56;"/><circle cx="737.128" cy="3797.02" r="45.223" style="fill:#ccc;"/><circle cx="313.148" cy="3797.24" r="85.923" style="fill:#3f3d56;"/><circle cx="313.148" cy="3797.24" r="45.223" style="fill:#ccc;"/><path d="M691.92,3561.82l-207.855,0.094l-25.372,0l-42.837,0.03l-0,-3.127l-0.03,-37.669l-0.03,-42.296l28.5,-0l25.373,-0.035l44.941,-0.03l25.373,0l51.886,-0.029l100.051,83.062Z" style="fill:#fff;fill-rule:nonzero;"/><path d="M382.034,3561.97l-109.849,0.059l-0.03,-21.554l-0,-37.669l-0.03,-23.869l16.084,0l25.373,-0.03l68.422,-0.029l0.03,83.092Z" style="fill:#fff;fill-rule:nonzero;"/><rect x="415.888" y="3623.93" width="14.086" height="26.763" style="fill:#3f3d56;"/><path d="M662.368,3599.86l-0.007,-14.085l-26.763,0.014l0.008,14.086l26.762,-0.015Z" style="fill:#3f3d56;"/><path d="M645.446,3533.09l1.549,-0c16.15,-0 29.439,13.289 29.439,29.439c0,16.15 -13.289,29.439 -29.439,29.439l-1.549,-0l-0,-58.878Z" style="fill:#3f3d56;fill-rule:nonzero;"/><path d="M884.361,3708.27c-1.634,0.178 -3.276,0.267 -4.919,0.267c-24.963,-0 -45.504,-20.541 -45.504,-45.503c0,-17.381 9.959,-33.305 25.586,-40.913c13.768,17.667 21.899,39.078 23.331,61.429l1.506,24.72Z" style="fill:#3f3d56;fill-rule:nonzero;"/><path d="M469.669,3478.82l-53.813,80l-0.03,-37.669l28.47,-42.296l25.373,-0.035Z" style="fill:#f2f2f2;fill-rule:nonzero;"/><path d="M313.582,3478.91l-41.427,61.568l-0,-37.669l16.054,-23.869l25.373,-0.03Z" style="fill:#f2f2f2;fill-rule:nonzero;"/><path d="M539.983,3478.79l-55.918,83.127l-25.372,0l55.917,-83.127l25.373,0Z" style="fill:#f2f2f2;fill-rule:nonzero;"/><path d="M623.011,3450.33l-392.882,0c-9.952,-0.012 -18.138,-8.451 -18.149,-18.712l-0,-376.45c0.011,-10.261 8.197,-18.701 18.149,-18.713l392.882,0c9.952,0.012 18.138,8.452 18.149,18.713l0,376.45c-0.011,10.261 -8.197,18.7 -18.149,18.712Z" style="fill:#1686d7;fill-rule:nonzero;"/><path d="M454.325,3463.55l-55.516,-0c-9.952,-0.012 -18.138,-8.452 -18.15,-18.713l0,-400.851c0.012,-10.261 8.198,-18.701 18.15,-18.713l55.516,0c9.952,0.012 18.138,8.452 18.149,18.713l0,400.851c-0.011,10.261 -8.197,18.701 -18.149,18.713Z" style="fill:#3f3d56;fill-rule:nonzero;"/><path d="M404.487,2934.32c30.39,24.286 24.222,82.229 24.222,82.229c0,-0 -55.44,18.568 -85.831,-5.719c-30.39,-24.286 -24.223,-82.229 -24.223,-82.229c0,0 55.441,-18.567 85.832,5.719Z" style="fill:#3f3d56;fill-rule:nonzero;"/><path d="M504.77,3002.36c-23.575,29.471 -82.333,21.875 -82.333,21.875c0,0 -20.535,-55.377 3.04,-84.848c23.574,-29.471 82.332,-21.876 82.332,-21.876c0,0 20.536,55.378 -3.039,84.849Z" style="fill:#3f3d56;fill-rule:nonzero;"/><path d="M422.149,3053.7l117.366,82.936l-234.088,4.345l60.947,-86.247l55.775,-1.034Z" style="fill-opacity:0.1;fill-rule:nonzero;"/><path d="M690.977,3099.55c-3.271,4.649 -8.612,7.451 -14.407,7.558l-487.686,9.059c-4.034,0.075 -8.023,-1.159 -11.355,-3.513c-4.78,-3.378 -7.756,-8.743 -8.031,-14.478l-2.59,-53.929c-0.192,-3.998 0.94,-7.912 3.224,-11.143c3.276,-4.636 8.613,-7.429 14.403,-7.535l487.683,-9.06c4.035,-0.075 8.024,1.159 11.355,3.513c4.78,3.378 7.757,8.743 8.032,14.478l2.589,53.929c0.197,3.99 -0.934,7.898 -3.217,11.121Z" style="fill:#1686d7;fill-rule:nonzero;"/><path d="M374.829,3017.71l4.454,92.757l93.618,-1.74l-4.454,-92.756l-93.618,1.739Z" style="fill:#3f3d56;"/><g><path d="M1879.73,1895.07l-225.275,-0c-5.706,-0.007 -10.4,-4.846 -10.406,-10.73l-0,-215.853c0.006,-5.883 4.7,-10.723 10.406,-10.729l225.275,-0c5.706,0.006 10.4,4.846 10.407,10.729l-0,215.853c-0.007,5.884 -4.701,10.723 -10.407,10.73Z" style="fill:#1686d7;fill-rule:nonzero;"/><path d="M1783.01,1902.65l-31.832,0c-5.707,-0.006 -10.4,-4.846 -10.407,-10.729l-0,-229.844c0.007,-5.884 4.7,-10.723 10.407,-10.73l31.832,-0c5.706,0.007 10.4,4.846 10.407,10.73l-0,229.844c-0.007,5.883 -4.701,10.723 -10.407,10.729Z" style="fill:#3f3d56;fill-rule:nonzero;"/><path d="M1754.43,1599.19c17.426,13.925 13.889,47.149 13.889,47.149c0,0 -31.789,10.647 -49.214,-3.279c-17.426,-13.925 -13.89,-47.149 -13.89,-47.149c0,-0 31.79,-10.647 49.215,3.279Z" style="fill:#3f3d56;fill-rule:nonzero;"/><path d="M1811.93,1638.2c-13.518,16.899 -47.209,12.543 -47.209,12.543c-0,0 -11.775,-31.753 1.743,-48.651c13.517,-16.898 47.209,-12.543 47.209,-12.543c-0,-0 11.774,31.753 -1.743,48.651Z" style="fill:#3f3d56;fill-rule:nonzero;"/><path d="M1764.56,1667.64l67.296,47.555l-134.223,2.491l34.946,-49.453l31.981,-0.593Z" style="fill-opacity:0.1;fill-rule:nonzero;"/><path d="M1918.7,1693.93c-1.875,2.666 -4.938,4.272 -8.261,4.334l-279.634,5.194c-2.313,0.043 -4.601,-0.664 -6.511,-2.014c-2.741,-1.937 -4.447,-5.013 -4.605,-8.302l-1.485,-30.922c-0.11,-2.292 0.539,-4.536 1.848,-6.389c1.879,-2.659 4.939,-4.26 8.259,-4.321l279.633,-5.195c2.313,-0.043 4.601,0.665 6.511,2.015c2.741,1.936 4.447,5.013 4.605,8.301l1.485,30.922c0.112,2.288 -0.536,4.529 -1.845,6.377Z" style="fill:#1686d7;fill-rule:nonzero;"/><path d="M1737.42,1647.01l2.553,53.185l53.68,-0.997l-2.554,-53.186l-53.679,0.998Z" style="fill:#3f3d56;"/></g><g><path d="M3095.52,1895.37l-216.436,0c-5.483,-0.006 -9.993,-4.656 -9.999,-10.309l0,-207.384c0.006,-5.652 4.516,-10.302 9.999,-10.308l216.436,-0c5.482,0.006 9.992,4.656 9.998,10.308l0,207.384c-0.006,5.653 -4.516,10.303 -9.998,10.309Z" style="fill:#1686d7;fill-rule:nonzero;"/><path d="M3002.59,1902.65l-30.584,0c-5.482,-0.006 -9.992,-4.655 -9.998,-10.308l-0,-220.827c0.006,-5.652 4.516,-10.302 9.998,-10.308l30.584,-0c5.482,0.006 9.992,4.656 9.998,10.308l0,220.827c-0.006,5.653 -4.516,10.302 -9.998,10.308Z" style="fill:#3f3d56;fill-rule:nonzero;"/><path d="M2975.13,1611.1c16.742,13.379 13.344,45.299 13.344,45.299c0,0 -30.542,10.229 -47.284,-3.15c-16.742,-13.379 -13.344,-45.299 -13.344,-45.299c0,-0 30.542,-10.229 47.284,3.15Z" style="fill:#3f3d56;fill-rule:nonzero;"/><path d="M3030.38,1648.58c-12.988,16.236 -45.357,12.052 -45.357,12.052c-0,-0 -11.313,-30.508 1.674,-46.743c12.987,-16.235 45.357,-12.051 45.357,-12.051c-0,-0 11.313,30.507 -1.674,46.742Z" style="fill:#3f3d56;fill-rule:nonzero;"/><path d="M2984.86,1676.86l64.656,45.689l-128.957,2.394l33.575,-47.513l30.726,-0.57Z" style="fill-opacity:0.1;fill-rule:nonzero;"/><path d="M3132.96,1702.12c-1.802,2.561 -4.744,4.105 -7.937,4.164l-268.663,4.99c-2.222,0.042 -4.42,-0.638 -6.255,-1.935c-2.634,-1.861 -4.273,-4.816 -4.425,-7.976l-1.426,-29.709c-0.106,-2.202 0.518,-4.358 1.775,-6.138c1.805,-2.555 4.746,-4.093 7.935,-4.152l268.662,-4.991c2.222,-0.041 4.42,0.639 6.255,1.936c2.633,1.861 4.273,4.816 4.425,7.976l1.426,29.709c0.108,2.198 -0.515,4.351 -1.772,6.126Z" style="fill:#1686d7;fill-rule:nonzero;"/><path d="M2958.8,1657.04l2.453,51.099l51.574,-0.958l-2.454,-51.099l-51.573,0.958Z" style="fill:#3f3d56;"/></g><g><path d="M2576.51,1140.76l-163.185,-0c-4.134,-0.005 -7.534,-3.511 -7.538,-7.773l-0,-156.36c0.004,-4.262 3.404,-7.767 7.538,-7.772l163.185,0c4.133,0.005 7.533,3.51 7.538,7.772l0,156.36c-0.005,4.262 -3.405,7.768 -7.538,7.773Z" style="fill:#1686d7;fill-rule:nonzero;"/><path d="M2506.44,1146.25l-23.058,0c-4.134,-0.004 -7.534,-3.51 -7.539,-7.772l0,-166.495c0.005,-4.262 3.405,-7.767 7.539,-7.772l23.058,-0c4.134,0.005 7.534,3.51 7.539,7.772l-0,166.495c-0.005,4.262 -3.405,7.768 -7.539,7.772Z" style="fill:#3f3d56;fill-rule:nonzero;"/><path d="M2485.74,926.431c12.623,10.087 10.061,34.154 10.061,34.154c0,0 -23.027,7.712 -35.65,-2.375c-12.623,-10.087 -10.061,-34.154 -10.061,-34.154c-0,0 23.027,-7.712 35.65,2.375Z" style="fill:#3f3d56;fill-rule:nonzero;"/><path d="M2527.39,954.693c-9.792,12.241 -34.197,9.086 -34.197,9.086c-0,0 -8.53,-23.001 1.262,-35.242c9.792,-12.241 34.197,-9.086 34.197,-9.086c0,0 8.53,23.001 -1.262,35.242Z" style="fill:#3f3d56;fill-rule:nonzero;"/><path d="M2493.08,976.017l48.748,34.447l-97.229,1.805l25.315,-35.823l23.166,-0.429Z" style="fill-opacity:0.1;fill-rule:nonzero;"/><path d="M2604.74,995.059c-1.359,1.931 -3.577,3.095 -5.984,3.14l-202.562,3.762c-1.676,0.031 -3.333,-0.481 -4.716,-1.459c-1.986,-1.403 -3.222,-3.631 -3.336,-6.014l-1.076,-22.399c-0.08,-1.66 0.391,-3.286 1.339,-4.628c1.361,-1.926 3.578,-3.086 5.982,-3.13l202.561,-3.763c1.676,-0.031 3.333,0.481 4.717,1.459c1.985,1.403 3.221,3.631 3.336,6.014l1.075,22.399c0.082,1.657 -0.388,3.281 -1.336,4.619Z" style="fill:#1686d7;fill-rule:nonzero;"/><path d="M2473.42,961.069l1.85,38.527l38.885,-0.723l-1.85,-38.527l-38.885,0.723Z" style="fill:#3f3d56;"/></g><g><path d="M2034.2,2516.17l-163.185,-0c-4.134,-0.005 -7.534,-3.511 -7.539,-7.773l0,-156.36c0.005,-4.261 3.405,-7.767 7.539,-7.772l163.185,0c4.133,0.005 7.533,3.511 7.538,7.772l0,156.36c-0.005,4.262 -3.405,7.768 -7.538,7.773Z" style="fill:#1686d7;fill-rule:nonzero;"/><path d="M1964.14,2521.66l-23.058,0c-4.134,-0.004 -7.534,-3.51 -7.539,-7.772l0,-166.495c0.005,-4.262 3.405,-7.767 7.539,-7.772l23.058,-0c4.134,0.005 7.534,3.51 7.539,7.772l-0,166.495c-0.005,4.262 -3.405,7.768 -7.539,7.772Z" style="fill:#3f3d56;fill-rule:nonzero;"/><path d="M1943.44,2301.84c12.623,10.088 10.061,34.154 10.061,34.154c-0,0 -23.028,7.713 -35.65,-2.375c-12.623,-10.087 -10.061,-34.154 -10.061,-34.154c-0,0 23.027,-7.712 35.65,2.375Z" style="fill:#3f3d56;fill-rule:nonzero;"/><path d="M1985.09,2330.1c-9.792,12.241 -34.197,9.086 -34.197,9.086c-0,0 -8.53,-23.001 1.262,-35.242c9.792,-12.241 34.197,-9.086 34.197,-9.086c0,0 8.53,23.001 -1.262,35.242Z" style="fill:#3f3d56;fill-rule:nonzero;"/><path d="M1950.77,2351.43l48.748,34.447l-97.229,1.805l25.315,-35.823l23.166,-0.429Z" style="fill-opacity:0.1;fill-rule:nonzero;"/><path d="M2062.43,2370.47c-1.358,1.931 -3.576,3.095 -5.984,3.14l-202.561,3.762c-1.676,0.031 -3.333,-0.481 -4.717,-1.459c-1.985,-1.403 -3.221,-3.631 -3.336,-6.014l-1.075,-22.399c-0.08,-1.66 0.39,-3.286 1.339,-4.628c1.361,-1.926 3.578,-3.086 5.982,-3.13l202.561,-3.763c1.676,-0.031 3.333,0.481 4.716,1.459c1.986,1.403 3.222,3.631 3.336,6.014l1.076,22.399c0.081,1.657 -0.388,3.281 -1.337,4.619Z" style="fill:#1686d7;fill-rule:nonzero;"/><path d="M1931.12,2336.48l1.85,38.527l38.885,-0.723l-1.85,-38.527l-38.885,0.723Z" style="fill:#3f3d56;"/></g><g><path d="M2730.18,2515.45l-184.555,-0c-4.675,-0.006 -8.52,-3.97 -8.526,-8.79l0,-176.837c0.006,-4.82 3.851,-8.784 8.526,-8.79l184.555,0c4.675,0.006 8.52,3.97 8.526,8.79l-0,176.837c-0.006,4.82 -3.851,8.784 -8.526,8.79Z" style="fill:#1686d7;fill-rule:nonzero;"/><path d="M2650.94,2521.66l-26.078,0c-4.675,-0.005 -8.52,-3.97 -8.526,-8.79l0,-188.298c0.006,-4.82 3.851,-8.785 8.526,-8.79l26.078,-0c4.675,0.005 8.521,3.97 8.526,8.79l-0,188.298c-0.005,4.82 -3.851,8.785 -8.526,8.79Z" style="fill:#3f3d56;fill-rule:nonzero;"/><path d="M2627.53,2273.05c14.276,11.408 11.379,38.627 11.379,38.627c-0,-0 -26.044,8.722 -40.319,-2.687c-14.276,-11.408 -11.379,-38.626 -11.379,-38.626c-0,-0 26.043,-8.723 40.319,2.686Z" style="fill:#3f3d56;fill-rule:nonzero;"/><path d="M2674.64,2305.02c-11.075,13.844 -38.676,10.276 -38.676,10.276c0,-0 -9.646,-26.014 1.428,-39.858c11.074,-13.843 38.675,-10.276 38.675,-10.276c0,0 9.647,26.014 -1.427,39.858Z" style="fill:#3f3d56;fill-rule:nonzero;"/><path d="M2635.83,2329.13l55.132,38.959l-109.962,2.041l28.63,-40.515l26.2,-0.485Z" style="fill-opacity:0.1;fill-rule:nonzero;"/><path d="M2762.11,2350.67c-1.537,2.184 -4.046,3.5 -6.768,3.55l-229.088,4.256c-1.896,0.035 -3.769,-0.545 -5.334,-1.651c-2.246,-1.586 -3.644,-4.106 -3.773,-6.801l-1.217,-25.333c-0.09,-1.877 0.442,-3.716 1.515,-5.234c1.539,-2.178 4.046,-3.489 6.765,-3.539l229.088,-4.256c1.895,-0.036 3.769,0.544 5.334,1.65c2.245,1.587 3.643,4.107 3.773,6.801l1.216,25.333c0.092,1.874 -0.439,3.71 -1.511,5.224Z" style="fill:#1686d7;fill-rule:nonzero;"/><path d="M2613.6,2312.23l2.092,43.572l43.977,-0.817l-2.092,-43.572l-43.977,0.817Z" style="fill:#3f3d56;"/></g><g><rect x="1409.18" y="1988.92" width="1965.61" height="41.294" style="fill:#3f3d56;"/><rect x="1409.18" y="1856.77" width="1965.61" height="41.294" style="fill:#3f3d56;"/><path d="M1603.26,2823.06l-0,-330.355l-41.295,0l0,330.355l41.295,0Z" style="fill:#3f3d56;"/><path d="M1834.51,2823.06l0,-330.355l-41.294,0l-0,330.355l41.294,0Z" style="fill:#3f3d56;"/><path d="M2065.76,2823.06l-0,-330.355l-41.294,0l-0,330.355l41.294,0Z" style="fill:#3f3d56;"/><path d="M2297.01,2823.06l-0,-330.355l-41.295,0l0,330.355l41.295,0Z" style="fill:#3f3d56;"/><path d="M2528.25,2823.06l0,-330.355l-41.294,0l-0,330.355l41.294,0Z" style="fill:#3f3d56;"/><path d="M2759.5,2823.06l-0,-330.355l-41.295,0l0,330.355l41.295,0Z" style="fill:#3f3d56;"/><path d="M2990.75,2823.06l0,-330.355l-41.294,0l0,330.355l41.294,0Z" style="fill:#3f3d56;"/><path d="M3222,2823.06l0,-330.355l-41.294,0l-0,330.355l41.294,0Z" style="fill:#3f3d56;"/><path d="M1607.39,2195.39l0,-330.356l-41.294,0l-0,330.356l41.294,-0Z" style="fill:#3f3d56;"/><path d="M1838.64,2195.39l-0,-330.356l-41.295,0l0,330.356l41.295,-0Z" style="fill:#3f3d56;"/><path d="M2069.89,2195.39l0,-330.356l-41.294,0l-0,330.356l41.294,-0Z" style="fill:#3f3d56;"/><path d="M2301.14,2195.39l0,-330.356l-41.294,0l-0,330.356l41.294,-0Z" style="fill:#3f3d56;"/><path d="M2532.38,2195.39l-0,-330.356l-41.295,0l0,330.356l41.295,-0Z" style="fill:#3f3d56;"/><path d="M2763.63,2195.39l0,-330.356l-41.294,0l-0,330.356l41.294,-0Z" style="fill:#3f3d56;"/><path d="M2994.88,2195.39l-0,-330.356l-41.295,0l0,330.356l41.295,-0Z" style="fill:#3f3d56;"/><path d="M3226.13,2195.39l-0,-330.356l-41.295,0l0,330.356l41.295,-0Z" style="fill:#3f3d56;"/><path d="M2763.63,1460.35l0,-330.355l-41.294,0l-0,330.355l41.294,0Z" style="fill:#3f3d56;"/><path d="M2994.88,1460.35l-0,-330.355l-41.294,0l-0,330.355l41.294,0Z" style="fill:#3f3d56;"/><path d="M3226.13,1460.35l-0,-330.355l-41.295,0l0,330.355l41.295,0Z" style="fill:#3f3d56;"/><rect x="1409.18" y="2129.32" width="1965.61" height="74.33" style="fill:#3f3d56;"/><rect x="1318.73" y="752.564" width="2146.51" height="110.763" style="fill:#3f3d56;"/></g><g><rect x="1409.18" y="1410.79" width="1965.61" height="74.33" style="fill:#3f3d56;"/><path d="M1607.39,1460.35l0,-330.355l-41.294,0l-0,330.355l41.294,0Z" style="fill:#3f3d56;"/><path d="M1838.64,1460.35l-0,-330.355l-41.295,0l0,330.355l41.295,0Z" style="fill:#3f3d56;"/><path d="M2069.89,1460.35l0,-330.355l-41.294,0l-0,330.355l41.294,0Z" style="fill:#3f3d56;"/><path d="M2301.14,1460.35l0,-330.355l-41.294,0l-0,330.355l41.294,0Z" style="fill:#3f3d56;"/><path d="M2532.38,1460.35l-0,-330.355l-41.295,0l0,330.355l41.295,0Z" style="fill:#3f3d56;"/><rect x="1409.18" y="1245.62" width="1965.61" height="41.294" style="fill:#3f3d56;"/><rect x="1409.18" y="1113.47" width="1965.61" height="41.294" style="fill:#3f3d56;"/><rect x="1409.18" y="2492.71" width="1965.61" height="41.294" style="fill:#3f3d56;"/></g></svg>