<?xml version="1.0" encoding="UTF-8" standalone="no"?><!DOCTYPE svg PUBLIC "-//W3C//DTD SVG 1.1//EN" "http://www.w3.org/Graphics/SVG/1.1/DTD/svg11.dtd"><svg width="100%" height="100%" viewBox="0 0 4167 4167" version="1.1" xmlns="http://www.w3.org/2000/svg" xmlns:xlink="http://www.w3.org/1999/xlink" xml:space="preserve" xmlns:serif="http://www.serif.com/" style="fill-rule:evenodd;clip-rule:evenodd;stroke-linejoin:round;stroke-miterlimit:2;"><g><path d="M2835.16,1643.69l-181.804,108.221l104.965,187.444l181.804,-108.221l-104.965,-187.444Z" style="fill:#27adff;"/><path d="M2837.47,1978.42l-109.603,-195.727l189.837,-113.001l109.604,195.729l-189.838,112.999Zm-96.934,-192.225l100.33,179.162l173.772,-103.438l-100.33,-179.164l-173.772,103.44Z" style="fill:#2f2e41;fill-rule:nonzero;"/><ellipse cx="2667.4" cy="2413.54" rx="88.099" ry="90.832" style="fill:#d0cde1;"/><path d="M2732.31,2509.15c-50.874,0 -92.736,-43.161 -92.736,-95.613c-0,-52.451 41.862,-95.613 92.736,-95.613c50.873,0 92.736,43.162 92.736,95.613c0,52.452 -41.863,95.613 -92.736,95.613Zm-0,-181.664c-45.786,-0 -83.463,38.845 -83.463,86.051c0,47.207 37.677,86.052 83.463,86.052c45.786,0 83.462,-38.845 83.462,-86.052c0,-47.206 -37.676,-86.051 -83.462,-86.051Z" style="fill:#2f2e41;fill-rule:nonzero;"/><path d="M3223.17,3472.84l-853.174,-0c-21.612,-0.026 -39.388,-18.354 -39.413,-40.636l-0,-817.491c0.025,-22.282 17.801,-40.61 39.413,-40.636l853.174,0c21.611,0.026 39.388,18.354 39.412,40.636l0,817.491c-0.024,22.282 -17.801,40.61 -39.412,40.636Z" style="fill:#1686d7;fill-rule:nonzero;"/><path d="M2856.86,3501.54l-120.557,0c-21.612,-0.025 -39.388,-18.353 -39.413,-40.635l0,-870.48c0.025,-22.283 17.801,-40.61 39.413,-40.636l120.557,0c21.612,0.026 39.388,18.353 39.413,40.636l0,870.48c-0.025,22.282 -17.801,40.61 -39.413,40.635Z" style="fill:#3f3d56;fill-rule:nonzero;"/><path d="M3449.85,2493.15c-4.984,84.332 -115.474,146.009 -115.474,146.009c0,0 -102.409,-75.053 -97.424,-159.385c4.985,-84.333 115.474,-146.01 115.474,-146.01c0,0 102.409,75.053 97.424,159.386Z" style="fill:#3f3d56;fill-rule:nonzero;"/><path d="M3454.86,2756.27c-81.811,-4.876 -141.977,-118.6 -141.977,-118.6c0,-0 72.475,-105.82 154.286,-100.944c81.81,4.876 141.976,118.6 141.976,118.6c0,0 -72.475,105.819 -154.285,100.944Z" style="fill:#3f3d56;fill-rule:nonzero;"/><path d="M3260.27,2674.09l-0,312.081l-301.068,-409.702l229.336,0l71.732,97.621Z" style="fill-opacity:0.1;fill-rule:nonzero;"/><path d="M3515.86,3208.3c-12.343,0.026 -24.006,-5.935 -31.459,-16.079l-627.243,-853.542c-5.189,-7.061 -7.999,-15.682 -7.999,-24.541c0,-12.711 5.785,-24.712 15.611,-32.388l92.397,-72.177c6.847,-5.35 15.208,-8.247 23.8,-8.247c12.329,-0 23.97,5.966 31.414,16.1l627.242,853.537c5.189,7.061 7.999,15.682 7.999,24.541c-0,12.711 -5.785,24.712 -15.611,32.388l-92.397,72.177c-6.83,5.349 -15.177,8.241 -23.754,8.231Z" style="fill:#1686d7;fill-rule:nonzero;"/><path d="M3264.79,2545.06l-158.919,124.144l120.408,163.849l158.92,-124.143l-120.409,-163.85Z" style="fill:#3f3d56;"/><path d="M2447.28,1920.68l-54.334,209.066l202.776,56.019l54.334,-209.066l-202.776,-56.019Z" style="fill:#d0cde1;"/><path d="M2509.7,2217.02l-211.731,-58.493l56.733,-218.304l211.732,58.493l-56.734,218.304Zm-200.374,-65.253l193.818,53.544l51.933,-199.835l-193.818,-53.544l-51.933,199.835Z" style="fill:#2f2e41;fill-rule:nonzero;"/><rect x="-98.047" y="3485.34" width="4362.76" height="10.608" style="fill:#3f3d56;"/><path d="M901.933,1035.72l-32.064,165.283l149.626,115.703l69.473,-214.874l-187.035,-66.112Z" style="fill:#9f616a;fill-rule:nonzero;"/><clipPath id="_clip1"><path d="M901.933,1035.72l-32.064,165.283l149.626,115.703l69.473,-214.874l-187.035,-66.112Z" clip-rule="nonzero"/></clipPath><g clip-path="url(#_clip1)"><rect x="-788.816" y="751.206" width="5125.27" height="2848.13" style="fill:#ebebeb;"/></g><ellipse cx="1022.17" cy="1038.47" rx="144.282" ry="148.758" style="fill:#9f616a;"/><path d="M709.557,2165.59c0.66,47.994 203.398,582.135 175.249,651.687c-44.373,46.765 -139.818,295.673 -180.596,362.074c-5.341,-0.003 -32.06,82.64 -32.06,82.64c0,0 64.126,104.682 133.595,60.605c87.351,-211.819 306.112,-329.957 309.978,-606.032c10.558,87.211 41.728,647.007 41.728,647.007c-0,-0 -5.978,2.617 128.606,15.911c20.894,-324.899 106.281,-877.652 -84.88,-1224.91c-58.774,-27.543 -491.62,11.023 -491.62,11.023Z" style="fill:#2f2e41;fill-rule:nonzero;"/><path d="M1157.44,3352.67c-6.247,12.387 -51.051,126.724 -10.28,138.189c47.019,13.22 92.597,-5.304 92.597,-5.304c-0,-0 82.308,26.519 132.68,-7.185c23.509,-24.238 18.166,-46.273 6.945,-62.249c-11.532,-15.921 -29.315,-25.804 -48.554,-26.983c-25.562,-1.88 -33.679,-6.764 -36.607,-18.84c-4.275,-17.628 -136.781,-17.628 -136.781,-17.628Z" style="fill:#2f2e41;fill-rule:nonzero;"/><path d="M717.748,3252.83c-0,-0 -114.854,37.394 -90.674,81.021c15.702,27.036 38.636,48.84 66.043,62.789c27.406,13.949 23.953,101.814 90.447,101.814c33.248,-0 44.582,-19.477 47.604,-38.953c2.765,-19.665 -3.032,-39.618 -15.827,-54.478c-16.786,-19.965 -19.176,-29.337 -12.965,-40.01c9.068,-15.581 -84.628,-112.183 -84.628,-112.183Z" style="fill:#2f2e41;fill-rule:nonzero;"/><path d="M1227.93,2181.72c0,0 -21.4,44.075 -106.897,27.527c-85.498,-16.495 -422.137,0 -422.137,0c-0,0 18.673,-393.915 -24.075,-630.837c-42.749,-236.922 125.571,-371.904 125.571,-371.904l53.449,-55.107c53.448,-5.463 166.313,165.533 166.313,165.533c37.142,6.417 71.814,169.192 101.393,323.215c1.749,8.804 3.395,17.502 5.042,26.201c13.632,71.814 32.614,151.742 43.983,223.503c0.823,5.092 1.595,10.13 2.315,15.169c13.514,93.186 31.889,185.553 55.043,276.7Z" style="fill:#e6e6e6;fill-rule:nonzero;"/><path d="M1170.57,1889.85c-127.475,-71.442 -333.965,-228.117 -400.583,-312.873c-87.812,-111.645 7.974,-196.506 7.974,-196.506c108.595,-70.647 238.436,171.738 238.436,171.738l105.148,87.937c1.749,8.804 3.395,17.503 5.041,26.201c13.633,71.814 32.615,151.742 43.984,223.503Z" style="fill-opacity:0.2;fill-rule:nonzero;"/><path d="M753.669,1344.18c-0,-0 -95.74,84.91 -7.99,196.519c87.749,111.608 491.023,350.076 491.023,350.076l262.684,-73.216l74.338,14.025l14.016,-143.896l-109.515,11.023l-278.002,-61.03l-177.271,-148.301c0,-0 -160.717,-215.809 -269.283,-145.2Z" style="fill:#e6e6e6;fill-rule:nonzero;"/><path d="M1102.45,2367.07l16.749,403.52l-42.471,-403.52l25.722,0Z" style="fill-opacity:0.2;fill-rule:nonzero;"/><g><path d="M1704.05,1432.6c0,0 -19.352,-65.093 6.338,-115.39c25.689,-50.297 55.178,-108.368 55.178,-108.368c0,0 45.493,12.738 23.879,111.593c0,-0 62.58,-132.617 87.197,-120.404c24.617,12.214 17.412,45.166 17.412,45.166c21.109,-3.002 41.972,6.994 53.358,25.565l-34.05,80.929c0,-0 91.459,-79.238 102.094,-70.274c10.634,8.963 26.635,73.931 26.635,73.931c0,-0 40.458,-12.239 58.182,2.701c17.724,14.94 -45.645,112.75 -45.645,112.75c18.186,-29.785 42.688,-35.187 73.128,-17.635c0,-0 -36.094,150.678 -134.48,149.453c-33.721,-0.42 -107.999,53.997 -151.338,29.751c-83.109,-46.495 -137.888,-199.767 -137.888,-199.767l0,-0l0,-0.001Z" style="fill:#1686d7;fill-rule:nonzero;"/><path d="M1820.49,1452.09c-27.539,-75.652 -41.464,-98.366 -41.464,-98.366c-0,-0 -70.814,-12.13 -80.385,70.047l-15.022,-27.297c-0,0 -23.893,59.278 55.921,166.651c86.364,116.184 181.279,86.942 190.354,70.21c-0,0 137.633,23.331 187.777,-110.012l-44.846,-6.094l-139.918,73.524l2.435,-52.701c1.604,-34.713 -36.79,-55.605 -63.681,-34.651c0,-0 -23.632,24.342 -51.171,-51.31l-0.001,-0l0.001,-0.001Z" style="fill:#3f3d56;fill-rule:nonzero;"/><path d="M1597.72,2023.87c-4.084,-2.402 -6.356,-7.341 -5.26,-12.322c44.032,-201.413 185.254,-433.232 186.675,-435.553c3.244,-5.282 10.077,-6.901 15.151,-3.522c5.119,3.343 6.654,10.329 3.414,15.614c-1.404,2.293 -140.625,230.885 -183.828,428.446c-1.328,6.092 -7.204,9.928 -13.119,8.549c-1.096,-0.25 -2.106,-0.667 -3.033,-1.212l-0,0l0,0Z" style="fill:#3f3d56;fill-rule:nonzero;"/></g><g><path d="M1533.66,1404.27c0,-0 -48.096,-46.651 -49.958,-103.463c-1.862,-56.813 -4.161,-122.318 -4.161,-122.318c0,-0 45.636,-12.181 74.379,84.725c-0,0 -9.388,-147.162 17.864,-149.131c27.252,-1.969 36.833,30.333 36.833,30.333c16.892,-13.393 39.817,-15.37 58.633,-5.057l9.324,87.689c-0,0 41.352,-115.553 54.897,-113.201c13.546,2.352 58.671,50.605 58.671,50.605c-0,0 29.258,-31.301 51.833,-27.381c22.576,3.921 14.548,121.253 14.548,121.253c1.48,-35.162 20.165,-52.373 55.041,-52.681c-0,0 41.074,149.316 -44.971,198.522c-29.49,16.864 -67.85,102.08 -117.147,103.165c-94.535,2.079 -215.785,-103.06 -215.785,-103.06l-0.001,-0Z" style="fill:#1686d7;fill-rule:nonzero;"/><path d="M1644.15,1361.7c-60.282,-51.64 -83.294,-64.253 -83.294,-64.253c-0,-0 -67.338,25.646 -36.152,101.912l-26.168,-16.034c0,0 7.739,63.696 128.673,116.176c130.857,56.788 199.243,-17.106 199.083,-36.276c-0,0 130.758,-50.057 110.22,-191.495l-41.882,17.62l-86.189,135.35l-23.215,-47.019c-15.292,-30.97 -58.682,-29.499 -71.967,2.44c-0,0 -8.826,33.218 -69.108,-18.421l-0,-0l-0.001,-0Z" style="fill:#3f3d56;fill-rule:nonzero;"/><path d="M1725.49,1972.15c-4.702,0 -9.05,-3.128 -10.492,-8.015c-58.564,-197.439 -47.328,-470.946 -47.21,-473.687c0.279,-6.246 5.436,-11.144 11.468,-10.801c6.052,0.287 10.743,5.572 10.47,11.818c-0.118,2.708 -11.168,272.39 46.266,466.06c1.775,5.969 -1.485,12.304 -7.286,14.128c-1.072,0.342 -2.15,0.497 -3.217,0.497l0.001,0Z" style="fill:#3f3d56;fill-rule:nonzero;"/></g><path d="M1551.11,1807.52c-0,0 189.514,79.322 220.706,-9.846c31.191,-89.168 -149.625,-87.638 -149.625,-87.638l-70.985,10.371l-0.096,87.113Z" style="fill:#9f616a;fill-rule:nonzero;"/><path d="M861.743,945.847c-0,-0 -26.976,-61.188 43.161,-89.001c-0,0 59.347,-100.125 178.04,-33.375c0,0 80.928,33.375 80.928,122.376c-0,89 26.976,105.688 26.976,105.688c-0,-0 -40.172,-42.491 -50.962,-75.866c-10.791,-33.375 -94.708,-40.947 -127.079,-7.572c-32.371,33.375 -113.298,27.813 -113.298,27.813l5.395,122.375c0,0 -26.976,-72.313 -37.766,-72.313c-10.79,0 -21.581,-100.125 -5.395,-100.125Z" style="fill:#2f2e41;fill-rule:nonzero;"/></g></svg>